<svg xmlns="http://www.w3.org/2000/svg" viewBox="527 678 15.689 15.688">
  <defs>
    <style>
      .cls-1 {
        fill: #444;
      }
    </style>
  </defs>
  <g id="group-160" transform="translate(527 678)">
    <path id="path" class="cls-1" d="M12.321,7.13A1.609,1.609,0,0,1,14.09,8.9a.993.993,0,0,0,.9,1.078q.045,0,.089,0a.993.993,0,0,0,.988-.905,3.6,3.6,0,0,0-3.925-3.923.993.993,0,1,0,.177,1.978Z" transform="translate(-3.796 -1.735)"/>
    <path id="path-2" data-name="path" class="cls-1" d="M17.57,2.054A6.974,6.974,0,0,0,12.655,0h-.007a.993.993,0,0,0-.007,1.987,5.029,5.029,0,0,1,5,5,.994.994,0,0,0,.993.986h.007a.994.994,0,0,0,.986-1A6.978,6.978,0,0,0,17.57,2.054Z" transform="translate(-3.936)"/>
    <path id="path-3" data-name="path" class="cls-1" d="M14.6,12.714c-1.076-.7-2.118-1.467-3.117-2.272a.83.83,0,0,0-1.08.01,13.583,13.583,0,0,0-.983,1.222c-.3.32-1.44.349-3.458-1.626C3.989,8.031,4.019,6.892,4.339,6.591A13.763,13.763,0,0,0,5.56,5.607a.831.831,0,0,0,.009-1.08c-.8-1-1.566-2.04-2.271-3.116A.948.948,0,0,0,2.237,1,5.878,5.878,0,0,0,.519,2.1C-.641,3.351-.066,7.127,4.41,11.6s8.251,5.051,9.506,3.891a5.813,5.813,0,0,0,1.1-1.719A.947.947,0,0,0,14.6,12.714Z" transform="translate(0 -0.324)"/>
  </g>
</svg>
